<svg width="24" height="24" viewBox="0 0 24 24" fill="none" xmlns="http://www.w3.org/2000/svg">
<g id="keyboard_arrow_down">
<mask id="mask0_932_25" style="mask-type:alpha" maskUnits="userSpaceOnUse" x="0" y="0" width="24" height="24">
<rect id="Bounding box" width="24" height="24" fill="#D9D9D9"/>
</mask>
<g mask="url(#mask0_932_25)">
<path id="keyboard_arrow_down_2" d="M11.9998 14.9747C11.8665 14.9747 11.7415 14.9538 11.6248 14.9122C11.5081 14.8705 11.3998 14.7997 11.2998 14.6997L6.6998 10.0997C6.51647 9.91635 6.4248 9.68302 6.4248 9.39968C6.4248 9.11635 6.51647 8.88302 6.6998 8.69968C6.88314 8.51635 7.11647 8.42468 7.3998 8.42468C7.68314 8.42468 7.91647 8.51635 8.0998 8.69968L11.9998 12.5997L15.8998 8.69968C16.0831 8.51635 16.3165 8.42468 16.5998 8.42468C16.8831 8.42468 17.1165 8.51635 17.2998 8.69968C17.4831 8.88302 17.5748 9.11635 17.5748 9.39968C17.5748 9.68302 17.4831 9.91635 17.2998 10.0997L12.6998 14.6997C12.5998 14.7997 12.4915 14.8705 12.3748 14.9122C12.2581 14.9538 12.1331 14.9747 11.9998 14.9747Z" fill="#262626"/>
</g>
</g>
</svg>
