<svg width="30" height="30" viewBox="0 0 30 30" fill="none" xmlns="http://www.w3.org/2000/svg">
<g id="arrow_right_alt">
<mask id="mask0_330_1032" style="mask-type:alpha" maskUnits="userSpaceOnUse" x="0" y="0" width="30" height="31">
<rect id="Bounding box" x="30" y="30.0002" width="30" height="30" transform="rotate(-180 30 30.0002)" fill="#D9D9D9"/>
</mask>
<g mask="url(#mask0_330_1032)">
<path id="arrow_right_alt_2" d="M6.0625 13.0472L26.25 13.0472C26.6042 13.0472 26.901 13.167 27.1406 13.4066C27.3802 13.6462 27.5 13.9431 27.5 14.2972C27.5 14.6514 27.3802 14.9483 27.1406 15.1879C26.901 15.4274 26.6042 15.5472 26.25 15.5472L6.0625 15.5472L9.625 19.1097C9.875 19.3597 9.99479 19.6514 9.98437 19.9847C9.97396 20.3181 9.85417 20.6097 9.625 20.8597C9.375 21.1097 9.07812 21.2399 8.73437 21.2504C8.39062 21.2608 8.09375 21.141 7.84375 20.891L2.125 15.1722C2 15.0472 1.91146 14.9118 1.85937 14.766C1.80729 14.6201 1.78125 14.4639 1.78125 14.2972C1.78125 14.1306 1.80729 13.9743 1.85937 13.8285C1.91146 13.6826 2 13.5472 2.125 13.4222L7.84375 7.70348C8.09375 7.45348 8.39062 7.33369 8.73437 7.3441C9.07812 7.35452 9.375 7.48473 9.625 7.73473C9.85417 7.98473 9.97396 8.27639 9.98437 8.60973C9.99479 8.94306 9.875 9.23473 9.625 9.48473L6.0625 13.0472Z" fill="white"/>
</g>
</g>
</svg>
