<svg width="41" height="41" viewBox="0 0 41 41" fill="none" xmlns="http://www.w3.org/2000/svg">
<g id="instagram" clip-path="url(#clip0_489_380)">
<path id="Vector" d="M20.3335 15.9716C19.3525 15.9716 18.3935 16.2625 17.5779 16.8076C16.7622 17.3526 16.1265 18.1272 15.7511 19.0335C15.3756 19.9399 15.2774 20.9371 15.4688 21.8993C15.6602 22.8614 16.1326 23.7452 16.8262 24.4389C17.5199 25.1326 18.4037 25.605 19.3658 25.7963C20.328 25.9877 21.3253 25.8895 22.2316 25.5141C23.1379 25.1387 23.9126 24.5029 24.4576 23.6873C25.0026 22.8716 25.2935 21.9126 25.2935 20.9316C25.2935 20.2803 25.1652 19.6353 24.9159 19.0335C24.6667 18.4318 24.3013 17.885 23.8407 17.4244C23.3802 16.9638 22.8334 16.5985 22.2316 16.3492C21.6298 16.0999 20.9849 15.9716 20.3335 15.9716ZM40.1935 11.0716C40.183 9.52716 39.8986 7.99678 39.3535 6.55164C38.9521 5.49416 38.3309 4.53383 37.5311 3.73401C36.7313 2.93419 35.771 2.31308 34.7135 1.91164C33.2684 1.36657 31.738 1.08216 30.1935 1.07164C27.6135 0.93164 26.8535 0.931641 20.3335 0.931641C13.8135 0.931641 13.0535 0.93164 10.4735 1.07164C8.92901 1.08216 7.39864 1.36657 5.9535 1.91164C4.89602 2.31308 3.93568 2.93419 3.13587 3.73401C2.33605 4.53383 1.71493 5.49416 1.3135 6.55164C0.768424 7.99678 0.484018 9.52716 0.473496 11.0716C0.333496 13.6516 0.333496 14.4116 0.333496 20.9316C0.333496 27.4516 0.333496 28.2116 0.473496 30.7916C0.495024 32.3416 0.779045 33.8766 1.3135 35.3316C1.71315 36.3843 2.33375 37.3391 3.1335 38.1316C3.92988 38.9363 4.89227 39.5574 5.9535 39.9516C7.39864 40.4967 8.92901 40.7811 10.4735 40.7916C13.0535 40.9316 13.8135 40.9316 20.3335 40.9316C26.8535 40.9316 27.6135 40.9316 30.1935 40.7916C31.738 40.7811 33.2684 40.4967 34.7135 39.9516C35.7747 39.5574 36.7371 38.9363 37.5335 38.1316C38.3332 37.3391 38.9538 36.3843 39.3535 35.3316C39.898 33.8794 40.1824 32.3426 40.1935 30.7916C40.3335 28.2116 40.3335 27.4516 40.3335 20.9316C40.3335 14.4116 40.3335 13.6516 40.1935 11.0716ZM35.1135 27.0716C35.0493 28.3058 34.7859 29.5216 34.3335 30.6716C33.9452 31.631 33.368 32.5025 32.6362 33.2343C31.9044 33.9662 31.0329 34.5434 30.0735 34.9316C28.9125 35.3588 27.69 35.5952 26.4535 35.6316C24.8735 35.6316 24.4535 35.6316 20.3335 35.6316C16.2135 35.6316 15.7935 35.6316 14.2135 35.6316C12.977 35.5952 11.7545 35.3588 10.5935 34.9316C9.6017 34.5631 8.70605 33.9751 7.9735 33.2116C7.24883 32.4941 6.68918 31.6274 6.3335 30.6716C5.90461 29.5119 5.67471 28.288 5.6535 27.0516C5.6535 25.4716 5.6535 25.0516 5.6535 20.9316C5.6535 16.8116 5.6535 16.3916 5.6535 14.8116C5.67471 13.5753 5.90461 12.3514 6.3335 11.1916C6.70206 10.1998 7.29004 9.30419 8.0535 8.57164C8.77416 7.85089 9.64002 7.29183 10.5935 6.93164C11.7545 6.50445 12.977 6.26806 14.2135 6.23164C15.7935 6.23164 16.2135 6.23164 20.3335 6.23164C24.4535 6.23164 24.8735 6.23164 26.4535 6.23164C27.69 6.26806 28.9125 6.50445 30.0735 6.93164C31.0653 7.3002 31.9609 7.88819 32.6935 8.65164C33.4182 9.36914 33.9778 10.2359 34.3335 11.1916C34.7607 12.3526 34.9971 13.5751 35.0335 14.8116C35.0335 16.3916 35.0335 16.8116 35.0335 20.9316C35.0335 25.0516 35.1735 25.4716 35.1135 27.0516V27.0716ZM31.9135 12.1916C31.6754 11.5456 31.2999 10.9589 30.8131 10.4721C30.3262 9.98521 29.7395 9.60977 29.0935 9.37164C28.2064 9.06416 27.2722 8.91522 26.3335 8.93164C24.7735 8.93164 24.3335 8.93164 20.3335 8.93164C16.3335 8.93164 15.8935 8.93164 14.3335 8.93164C13.39 8.94086 12.4556 9.11691 11.5735 9.45164C10.9374 9.67895 10.3569 10.0391 9.87066 10.508C9.38445 10.977 9.00362 11.5441 8.7535 12.1716C8.46305 13.0624 8.32115 13.9948 8.3335 14.9316C8.3335 16.4916 8.3335 16.9316 8.3335 20.9316C8.3335 24.9316 8.3335 25.3716 8.3335 26.9316C8.35332 27.874 8.52903 28.8066 8.8535 29.6916C9.09162 30.3377 9.46706 30.9244 9.95392 31.4112C10.4408 31.8981 11.0275 32.2735 11.6735 32.5116C12.5268 32.8255 13.4248 33.001 14.3335 33.0316C15.8935 33.0316 16.3335 33.0316 20.3335 33.0316C24.3335 33.0316 24.7735 33.0316 26.3335 33.0316C27.277 33.0224 28.2114 32.8464 29.0935 32.5116C29.7395 32.2735 30.3262 31.8981 30.8131 31.4112C31.2999 30.9244 31.6754 30.3377 31.9135 29.6916C32.2482 28.8095 32.4243 27.8751 32.4335 26.9316C32.4335 25.3716 32.4335 24.9316 32.4335 20.9316C32.4335 16.9316 32.4335 16.4916 32.4335 14.9316C32.4341 13.9872 32.2577 13.0511 31.9135 12.1716V12.1916ZM20.3335 28.5716C19.3311 28.5716 18.3386 28.3739 17.4128 27.9897C16.487 27.6055 15.6461 27.0424 14.9383 26.3327C14.2304 25.623 13.6695 24.7806 13.2878 23.8538C12.906 22.927 12.7109 21.934 12.7135 20.9316C12.7135 19.4197 13.1621 17.9418 14.0025 16.685C14.8429 15.4282 16.0372 14.449 17.4344 13.8713C18.8316 13.2936 20.3688 13.1435 21.8514 13.4399C23.3339 13.7364 24.6952 14.466 25.7629 15.5365C26.8305 16.6069 27.5566 17.9701 27.8491 19.4534C28.1417 20.9368 27.9875 22.4736 27.4062 23.8692C26.8249 25.2649 25.8425 26.4567 24.5835 27.2938C23.3245 28.1309 21.8454 28.5756 20.3335 28.5716ZM28.3335 14.7916C27.8914 14.7448 27.4822 14.5361 27.1849 14.2056C26.8875 13.8751 26.723 13.4462 26.723 13.0016C26.723 12.5571 26.8875 12.1282 27.1849 11.7977C27.4822 11.4672 27.8914 11.2584 28.3335 11.2116C28.7756 11.2584 29.1848 11.4672 29.4821 11.7977C29.7795 12.1282 29.944 12.5571 29.944 13.0016C29.944 13.4462 29.7795 13.8751 29.4821 14.2056C29.1848 14.5361 28.7756 14.7448 28.3335 14.7916Z" fill="#981945"/>
</g>
<defs>
<clipPath id="clip0_489_380">
<rect width="40" height="40" fill="white" transform="translate(0.333496 0.931641)"/>
</clipPath>
</defs>
</svg>
