<svg width="41" height="41" viewBox="0 0 41 41" fill="none" xmlns="http://www.w3.org/2000/svg">
<g id="pinterest" clip-path="url(#clip0_489_383)">
<path id="Vector" d="M33.8787 40.5737H7.68169C4.22269 40.5737 1.40869 37.6937 1.40869 34.1532V7.35215C1.40869 3.81164 4.22269 0.931641 7.68169 0.931641H33.8787C37.3367 0.931641 40.1507 3.81164 40.1507 7.35215V34.1542C40.1507 37.6947 37.3367 40.5737 33.8787 40.5737ZM15.1987 37.4219C15.8957 36.5214 18.1497 31.465 19.5717 27.5563L19.8257 26.8568L20.3707 27.3511C21.0847 27.9993 22.2827 28.4004 23.3967 28.4404C24.1877 28.4691 25.0597 28.307 25.9867 27.9583C29.7087 26.5563 31.8167 22.4916 31.3327 17.5573C30.8497 12.627 27.1777 9.33369 21.9207 9.14497C17.2037 8.97574 13.0477 11.426 11.9707 15.7173C11.2717 18.4957 11.8347 21.7316 13.0877 23.4506C13.7137 24.307 14.4317 24.6034 15.0337 24.3409C15.7427 24.0311 15.9117 23.6075 15.7557 22.8845C15.6828 22.5786 15.5844 22.2797 15.4617 21.9911L15.3747 21.7757L15.2637 21.4988C14.9197 20.6414 14.7417 20.0322 14.6887 19.3429C14.5537 17.6424 15.0617 16.1122 16.1867 14.8209C17.2927 13.5511 19.4397 12.7409 21.4467 12.8137C23.4147 12.8834 25.1657 13.6957 26.3637 15.5347C27.6967 17.5809 27.3917 20.5686 26.1907 22.5224C25.5607 23.548 24.2177 24.4957 23.1087 24.4557C22.6447 24.4393 21.9347 24.2629 21.5757 23.9306C20.9097 23.3122 20.9757 22.6927 21.6127 20.8906C22.0927 19.5368 22.2677 18.8742 22.2967 18.0229C22.3407 16.7409 21.3317 15.827 20.0487 15.7809C18.9917 15.7429 18.1367 16.3204 17.8427 17.2506C17.6157 17.9706 17.6247 18.5552 17.7897 19.7757C17.9197 20.7296 17.7407 21.0916 17.5967 21.5091C17.3297 22.2763 16.6107 25.7398 16.0067 28.4065C14.8987 33.2916 14.4017 36.586 14.3737 37.187C14.3687 37.2896 14.3667 37.6834 14.3667 38.3675C14.8887 37.7798 15.1667 37.465 15.1997 37.4219H15.1987Z" fill="#981945"/>
</g>
<defs>
<clipPath id="clip0_489_383">
<rect width="40" height="40" fill="white" transform="translate(0.666504 0.931641)"/>
</clipPath>
</defs>
</svg>
