<svg width="72" height="73" viewBox="0 0 72 73" fill="none" xmlns="http://www.w3.org/2000/svg">
<g id="Price Tag">
<path id="43 Price Tag, Price, Tag, Tag Price" d="M40.5 18.4316C41.3284 18.4316 42 19.1032 42 19.9316C42 20.7601 41.3284 21.4316 40.5 21.4316H31.5C30.6716 21.4316 30 20.7601 30 19.9316C30 19.1032 30.6716 18.4316 31.5 18.4316H33C33.8284 18.4316 34.5 17.7601 34.5 16.9316V4.93164C34.5 4.10321 35.1716 3.43164 36 3.43164C36.8284 3.43164 37.5 4.10321 37.5 4.93164V16.9316C37.5 17.7601 38.1716 18.4316 39 18.4316H40.5ZM46.5 45.4316C46.5 47.5083 45.8842 49.5384 44.7304 51.2651C43.5767 52.9918 41.9368 54.3377 40.0182 55.1324C38.0996 55.9271 35.9884 56.135 33.9515 55.7299C31.9148 55.3247 30.0438 54.3247 28.5754 52.8563C27.1069 51.3878 26.1069 49.5169 25.7018 47.4801C25.2966 45.4433 25.5045 43.3321 26.2993 41.4135C27.094 39.4948 28.4398 37.855 30.1665 36.7012C31.8932 35.5475 33.9233 34.9316 36 34.9316C38.7848 34.9316 41.4555 36.0379 43.4246 38.007C45.3938 39.9762 46.5 42.6469 46.5 45.4316ZM55.5 24.9416V64.9316C55.5 66.1251 55.0259 67.2697 54.182 68.1136C53.3381 68.9575 52.1935 69.4316 51 69.4316H21C19.8065 69.4316 18.6619 68.9575 17.818 68.1136C16.9741 67.2697 16.5 66.1251 16.5 64.9316V24.9266C16.5 23.3039 17.0263 21.7249 18 20.4266L25.8 10.0316C25.9397 9.84535 26.1209 9.69414 26.3292 9.59C26.5375 9.48586 26.7671 9.43164 27 9.43164H31.5C32.3284 9.43164 33 10.1032 33 10.9316V15.4316C33 16.2601 32.3284 16.9316 31.5 16.9316H30C29.1716 16.9316 28.5 17.6032 28.5 18.4316V21.4316C28.5 22.2601 29.1716 22.9316 30 22.9316H42C42.8284 22.9316 43.5 22.2601 43.5 21.4316V18.4316C43.5 17.6032 42.8284 16.9316 42 16.9316H40.5C39.6716 16.9316 39 16.2601 39 15.4316V10.9316C39 10.1032 39.6716 9.43164 40.5 9.43164H44.91C45.1429 9.43164 45.3725 9.48586 45.5808 9.59C45.7891 9.69414 45.9703 9.84535 46.11 10.0316L54 20.4266C54.9767 21.729 55.5033 23.3137 55.5 24.9416ZM49.5 45.4316C49.5 42.7616 48.7082 40.1515 47.2248 37.9314C45.7414 35.7114 43.633 33.981 41.1662 32.9593C38.6994 31.9375 35.985 31.6701 33.3663 32.191C30.7475 32.7119 28.3421 33.9977 26.4541 35.8857C24.5661 37.7737 23.2803 40.1792 22.7594 42.7979C22.2385 45.4167 22.5058 48.1311 23.5276 50.5979C24.5494 53.0647 26.2797 55.1731 28.4998 56.6565C30.7199 58.1399 33.33 58.9316 36 58.9316C39.5804 58.9316 43.0142 57.5093 45.5459 54.9776C48.0777 52.4458 49.5 49.0121 49.5 45.4316Z" fill="#981945"/>
</g>
</svg>
