<svg width="24" height="24" viewBox="0 0 24 24" fill="none" xmlns="http://www.w3.org/2000/svg">
<g id="Shipping" clip-path="url(#clip0_870_371)">
<path id="Vector" d="M17.3072 17.3554H9.11978C8.89245 17.3554 8.67443 17.2651 8.51369 17.1044C8.35294 16.9436 8.26264 16.7256 8.26264 16.4983C8.26264 16.271 8.35294 16.0529 8.51369 15.8922C8.67443 15.7314 8.89245 15.6411 9.11978 15.6411H17.3072C17.5345 15.6411 17.7526 15.7314 17.9133 15.8922C18.074 16.0529 18.1644 16.271 18.1644 16.4983C18.1644 16.7256 18.074 16.9436 17.9133 17.1044C17.7526 17.2651 17.5345 17.3554 17.3072 17.3554ZM22.0249 17.3554H21.8192C21.5919 17.3554 21.3739 17.2651 21.2131 17.1044C21.0524 16.9436 20.9621 16.7256 20.9621 16.4983C20.9621 16.271 21.0524 16.0529 21.2131 15.8922C21.3739 15.7314 21.5919 15.6411 21.8192 15.6411H22.0249C22.0813 15.6421 22.1374 15.6317 22.1897 15.6108C22.2421 15.5898 22.2898 15.5586 22.33 15.5191C22.3702 15.4795 22.4021 15.4323 22.4239 15.3803C22.4457 15.3283 22.4569 15.2724 22.4569 15.216V12.2743C22.4566 12.1778 22.4241 12.0842 22.3644 12.0084C22.3048 11.9326 22.2215 11.879 22.1278 11.856H17.0741C16.506 11.856 15.9611 11.6308 15.5588 11.2298C15.1565 10.8288 14.9296 10.2846 14.9278 9.71657V5.12229C14.9287 5.0662 14.9183 5.0105 14.8973 4.9585C14.8763 4.9065 14.845 4.85926 14.8053 4.8196C14.7657 4.77993 14.7184 4.74865 14.6664 4.72762C14.6144 4.70658 14.5587 4.69622 14.5026 4.69714H4.40206C4.17474 4.69714 3.95672 4.60684 3.79597 4.44609C3.63523 4.28535 3.54492 4.06733 3.54492 3.84C3.54492 3.61267 3.63523 3.39465 3.79597 3.23391C3.95672 3.07316 4.17474 2.98286 4.40206 2.98286H14.5026C14.7836 2.98286 15.0618 3.03819 15.3214 3.14571C15.5809 3.25323 15.8168 3.41082 16.0154 3.60948C16.2141 3.80815 16.3717 4.04399 16.4792 4.30356C16.5867 4.56313 16.6421 4.84133 16.6421 5.12229V9.70286C16.6421 9.75927 16.6533 9.81512 16.6751 9.86715C16.6969 9.91918 16.7288 9.96636 16.769 10.0059C16.8092 10.0455 16.8569 10.0767 16.9093 10.0976C16.9616 10.1186 17.0177 10.1289 17.0741 10.128H22.0249C22.1815 10.13 22.3375 10.1461 22.4912 10.176L22.6421 10.224C23.0861 10.3538 23.4756 10.6249 23.7516 10.9962C24.0275 11.3674 24.1749 11.8186 24.1712 12.2811V15.2229C24.1676 15.7897 23.9399 16.3321 23.5377 16.7317C23.1356 17.1312 22.5918 17.3554 22.0249 17.3554Z" fill="black"/>
<path id="Vector_2" d="M22.3202 11.8834C22.1439 11.8834 21.9721 11.8286 21.8284 11.7266C21.6846 11.6247 21.5761 11.4806 21.5179 11.3143L20.1464 7.50171C20.1095 7.45027 20.0613 7.40803 20.0054 7.3783C19.9495 7.34856 19.8875 7.33213 19.8242 7.33028H15.7716C15.5443 7.33028 15.3262 7.23998 15.1655 7.07923C15.0048 6.91849 14.9144 6.70047 14.9144 6.47314C14.9144 6.24581 15.0048 6.02779 15.1655 5.86705C15.3262 5.7063 15.5443 5.616 15.7716 5.616H19.8242C20.2042 5.61748 20.5767 5.72145 20.9026 5.91696C21.2284 6.11246 21.4955 6.39226 21.6756 6.72686C21.6967 6.76668 21.715 6.80792 21.7304 6.85028L23.1019 10.7383C23.1769 10.9529 23.1642 11.1885 23.0666 11.3939C22.9691 11.5993 22.7945 11.7579 22.5807 11.8354C22.4962 11.8623 22.4087 11.8784 22.3202 11.8834ZM19.5636 21.0171C18.9465 21.0171 18.3433 20.8342 17.8302 20.4913C17.3171 20.1485 16.9172 19.6612 16.6811 19.0911C16.4449 18.521 16.3832 17.8937 16.5035 17.2885C16.6239 16.6832 16.9211 16.1273 17.3574 15.691C17.7938 15.2546 18.3497 14.9575 18.9549 14.8371C19.5601 14.7167 20.1875 14.7785 20.7576 15.0146C21.3277 15.2508 21.8149 15.6507 22.1578 16.1638C22.5006 16.6768 22.6836 17.2801 22.6836 17.8971C22.6836 18.7246 22.3549 19.5182 21.7698 20.1033C21.1847 20.6884 20.3911 21.0171 19.5636 21.0171ZM19.5636 16.4914C19.2842 16.4846 19.0091 16.5612 18.7735 16.7115C18.5379 16.8617 18.3524 17.0788 18.2407 17.335C18.129 17.5912 18.0962 17.8749 18.1466 18.1498C18.1969 18.4247 18.328 18.6783 18.5231 18.8784C18.7183 19.0784 18.9686 19.2157 19.2422 19.2728C19.5158 19.3299 19.8002 19.3041 20.059 19.1988C20.3179 19.0935 20.5395 18.9134 20.6955 18.6816C20.8516 18.4497 20.9349 18.1766 20.935 17.8971C20.9351 17.5302 20.7917 17.1777 20.5355 16.9151C20.2792 16.6524 19.9304 16.5004 19.5636 16.4914ZM6.85731 21.0171C6.24023 21.0171 5.63701 20.8342 5.12393 20.4913C4.61085 20.1485 4.21095 19.6612 3.9748 19.0911C3.73866 18.521 3.67687 17.8937 3.79726 17.2885C3.91764 16.6832 4.21479 16.1273 4.65113 15.691C5.08747 15.2546 5.6434 14.9575 6.24862 14.8371C6.85385 14.7167 7.48117 14.7785 8.05128 15.0146C8.62138 15.2508 9.10866 15.6507 9.45149 16.1638C9.79432 16.6768 9.97731 17.2801 9.97731 17.8971C9.97731 18.7246 9.64859 19.5182 9.06348 20.1033C8.47837 20.6884 7.68478 21.0171 6.85731 21.0171ZM6.85731 16.4914C6.57928 16.4914 6.3075 16.5739 6.07633 16.7283C5.84516 16.8828 5.66499 17.1023 5.5586 17.3592C5.4522 17.6161 5.42436 17.8987 5.4786 18.1714C5.53284 18.4441 5.66672 18.6945 5.86332 18.8911C6.05991 19.0877 6.31038 19.2216 6.58307 19.2758C6.85575 19.3301 7.13839 19.3022 7.39525 19.1959C7.65211 19.0895 7.87165 18.9093 8.02611 18.6781C8.18058 18.4469 8.26302 18.1752 8.26302 17.8971C8.26302 17.5243 8.11492 17.1668 7.8513 16.9031C7.58767 16.6395 7.23012 16.4914 6.85731 16.4914Z" fill="black"/>
<path id="Vector_3" d="M15.7713 17.3554C15.6585 17.3563 15.5466 17.3348 15.4422 17.292C15.3378 17.2493 15.243 17.1862 15.1632 17.1064C15.0834 17.0266 15.0203 16.9318 14.9775 16.8274C14.9348 16.723 14.9132 16.6111 14.9142 16.4983V9.00343C14.9142 8.7761 15.0045 8.55809 15.1652 8.39734C15.326 8.23659 15.544 8.14629 15.7713 8.14629C15.9986 8.14629 16.2167 8.23659 16.3774 8.39734C16.5381 8.55809 16.6284 8.7761 16.6284 9.00343V16.4983C16.6294 16.6111 16.6078 16.723 16.5651 16.8274C16.5223 16.9318 16.4592 17.0266 16.3794 17.1064C16.2997 17.1862 16.2048 17.2493 16.1004 17.292C15.996 17.3348 15.8841 17.3563 15.7713 17.3554ZM6.9873 9.03086H1.3713C1.14397 9.03086 0.925957 8.94055 0.765211 8.77981C0.604466 8.61906 0.51416 8.40105 0.51416 8.17372C0.51416 7.94639 0.604466 7.72837 0.765211 7.56763C0.925957 7.40688 1.14397 7.31657 1.3713 7.31657H6.9873C7.21463 7.31657 7.43265 7.40688 7.59339 7.56763C7.75414 7.72837 7.84445 7.94639 7.84445 8.17372C7.84445 8.40105 7.75414 8.61906 7.59339 8.77981C7.43265 8.94055 7.21463 9.03086 6.9873 9.03086ZM8.0433 12.8571H5.10845C4.88112 12.8571 4.6631 12.7668 4.50235 12.6061C4.34161 12.4453 4.2513 12.2273 4.2513 12C4.2513 11.7727 4.34161 11.5547 4.50235 11.3939C4.6631 11.2332 4.88112 11.1429 5.10845 11.1429H8.0433C8.27063 11.1429 8.48865 11.2332 8.64939 11.3939C8.81014 11.5547 8.90045 11.7727 8.90045 12C8.90045 12.2273 8.81014 12.4453 8.64939 12.6061C8.48865 12.7668 8.27063 12.8571 8.0433 12.8571Z" fill="black"/>
</g>
<defs>
<clipPath id="clip0_870_371">
<rect width="24" height="24" fill="white"/>
</clipPath>
</defs>
</svg>
