<svg width="72" height="73" viewBox="0 0 72 73" fill="none" xmlns="http://www.w3.org/2000/svg">
<g id="Spray">
<path id="Vector" d="M44.9503 17.5062C45.0532 17.5062 45.1561 17.5062 45.1561 17.5062L56.5732 14.7291C57.0875 14.6262 57.4989 14.0091 57.2932 13.4948C57.1903 12.9805 56.5732 12.5691 56.0589 12.7748L44.6418 15.4491C44.1275 15.5519 43.7161 16.1691 43.9218 16.6834C44.0246 17.0948 44.4361 17.5062 44.9503 17.5062ZM56.5732 21.8262L45.1561 19.1519C44.6418 19.0491 44.0246 19.3577 43.9218 19.8719C43.8189 20.3862 44.1275 21.0034 44.6418 21.1062L56.0589 23.7805C56.1618 23.7805 56.2646 23.7805 56.2646 23.7805C56.7789 23.7805 57.1903 23.4719 57.2932 22.9577C57.4989 22.5462 57.1903 21.9291 56.5732 21.8262Z" fill="#981945"/>
<path id="Vector_2" d="M41.7606 22.9575V14.9347C41.7606 13.1861 40.3206 11.7461 38.572 11.7461H32.7091C30.9606 11.7461 29.5206 13.1861 29.5206 14.9347V22.9575C26.6406 23.7804 23.8634 25.3232 21.4977 27.4832C17.0748 31.4947 14.5034 37.1518 14.5034 43.1175C14.5034 49.8032 17.5891 55.9747 23.0406 59.9861C23.9663 60.7061 25.0977 61.0147 26.2291 61.0147H44.9491C46.0806 61.0147 47.212 60.6032 48.1377 59.9861C53.5891 55.9747 56.572 49.7004 56.572 43.1175C56.572 42.3975 56.572 41.7804 56.4691 41.0604C55.852 32.5232 49.7834 25.4261 41.7606 22.9575ZM34.7663 17.3004C34.7663 17.1975 34.8691 17.0947 34.972 16.9918C35.1777 16.7861 35.5891 16.6832 35.8977 16.6832C36.0006 16.6832 36.0006 16.6832 36.1034 16.6832C36.2063 16.6832 36.2063 16.7861 36.3091 16.7861C36.3091 16.7861 36.412 16.889 36.5148 16.889C36.6177 16.9918 36.7206 17.0947 36.7206 17.1975C36.8234 17.3004 36.8234 17.5061 36.8234 17.609C36.8234 17.7118 36.8234 17.9175 36.7206 18.0204C36.7206 18.1232 36.6177 18.2261 36.5148 18.3289C36.3091 18.5347 36.1034 18.6375 35.7948 18.6375C35.4863 18.6375 35.2806 18.5347 35.0748 18.3289C34.972 18.2261 34.8691 18.1232 34.8691 18.0204C34.8691 17.9175 34.7663 17.7118 34.7663 17.609C34.6634 17.609 34.6634 17.5061 34.7663 17.3004ZM45.6691 56.7975C45.4634 56.9004 45.2577 57.0032 45.052 57.0032H26.2291C26.0234 57.0032 25.8177 56.9004 25.612 56.7975C21.3948 53.7118 18.8234 48.8775 18.7206 43.5289C18.7206 43.2204 18.9263 42.9118 19.132 42.7061C19.4406 42.5004 19.7491 42.3975 20.0577 42.6032C23.7606 43.9404 28.3891 43.3232 33.7377 42.7061C39.1891 42.0889 45.3606 41.3689 51.7377 42.6032C52.252 42.7061 52.5606 43.1175 52.5606 43.6318C52.4577 48.8775 49.9891 53.7118 45.6691 56.7975Z" fill="#981945"/>
</g>
</svg>
