<svg width="22" height="22" viewBox="0 0 22 22" fill="none" xmlns="http://www.w3.org/2000/svg">
<g id="team_dashboard_24dp_E8EAED_FILL0_wght300_GRAD0_opsz24">
<path id="Vector" d="M4.8656 18.7916C4.40849 18.7916 4.01799 18.6297 3.6941 18.306C3.37036 17.9821 3.2085 17.5916 3.2085 17.1345V4.86536C3.2085 4.40824 3.37036 4.01775 3.6941 3.69386C4.01799 3.37012 4.40849 3.20825 4.8656 3.20825H17.1347C17.5918 3.20825 17.9823 3.37012 18.3062 3.69386C18.63 4.01775 18.7918 4.40824 18.7918 4.86536V17.1345C18.7918 17.5916 18.63 17.9821 18.3062 18.306C17.9823 18.6297 17.5918 18.7916 17.1347 18.7916H4.8656ZM9.396 17.4166V11.6874H4.5835V17.1345C4.5835 17.2168 4.60993 17.2844 4.66279 17.3373C4.71565 17.3902 4.78325 17.4166 4.8656 17.4166H9.396ZM10.771 17.4166H17.1347C17.2171 17.4166 17.2847 17.3902 17.3375 17.3373C17.3904 17.2844 17.4168 17.2168 17.4168 17.1345V11.6874H10.771V17.4166ZM4.5835 10.3124H17.4168V4.86536C17.4168 4.78301 17.3904 4.71541 17.3375 4.66254C17.2847 4.60968 17.2171 4.58325 17.1347 4.58325H4.8656C4.78325 4.58325 4.71565 4.60968 4.66279 4.66254C4.60993 4.71541 4.5835 4.78301 4.5835 4.86536V10.3124Z" fill="#262626"/>
</g>
</svg>
