<svg width="40" height="41" viewBox="0 0 40 41" fill="none" xmlns="http://www.w3.org/2000/svg">
<g id="youtube">
<path id="Vector" d="M39.9908 16.9964C40.0806 14.5289 39.5119 12.0799 38.3373 9.87672C37.5403 8.9727 36.4343 8.36263 35.212 8.15282C30.1561 7.71758 25.0793 7.53918 20.0034 7.61841C14.946 7.53559 9.88744 7.70822 4.84933 8.13558C3.85327 8.30748 2.93148 8.75074 2.19646 9.41127C0.561129 10.8421 0.379426 13.29 0.197722 15.3587C-0.0659074 19.0782 -0.0659074 22.8102 0.197722 26.5296C0.250289 27.694 0.433017 28.8497 0.742833 29.9774C0.961922 30.8481 1.40518 31.6537 2.03293 32.3219C2.77295 33.0174 3.7162 33.4859 4.74031 33.6666C8.65768 34.1253 12.6048 34.3155 16.551 34.2355C22.9107 34.3217 28.489 34.2355 35.0848 33.7528C36.134 33.5832 37.1039 33.1141 37.8649 32.4081C38.3736 31.9253 38.7535 31.3343 38.9732 30.6842C39.6231 28.7924 39.9422 26.8125 39.9181 24.823C39.9908 23.8576 39.9908 18.0308 39.9908 16.9964ZM15.8969 25.8573V15.1863L26.6538 20.5477C23.6375 22.1337 19.6582 23.9265 15.8969 25.8573Z" fill="#981945"/>
</g>
</svg>
