<svg width="48" height="48" viewBox="0 0 48 48" fill="none" xmlns="http://www.w3.org/2000/svg">
<g id="apple">
<path id="Vector" d="M29.8798 10.38C30.6359 9.50856 31.2124 8.49634 31.5762 7.40147C31.9401 6.30661 32.084 5.15066 31.9998 4C29.6786 4.18737 27.5238 5.27911 25.9998 7.04C25.27 7.88395 24.717 8.86576 24.3734 9.92729C24.0299 10.9888 23.9029 12.1085 23.9998 13.22C25.1321 13.2294 26.2514 12.9782 27.271 12.4857C28.2906 11.9932 29.1833 11.2727 29.8798 10.38ZM34.9198 25.26C34.9332 23.7275 35.3369 22.2236 36.0928 20.8904C36.8486 19.5572 37.9317 18.4385 39.2398 17.64C38.4143 16.4505 37.3229 15.4697 36.0523 14.7753C34.7817 14.081 33.3668 13.6923 31.9198 13.64C28.7998 13.32 25.9198 15.46 24.2598 15.46C22.5998 15.46 20.2598 13.68 17.6598 13.72C15.9601 13.776 14.3039 14.2716 12.8527 15.1584C11.4016 16.0452 10.205 17.293 9.37982 18.78C5.85982 24.9 8.47982 34 11.9998 38.94C13.5998 41.36 15.5998 44.1 18.2398 44C20.8798 43.9 21.7398 42.36 24.7998 42.36C27.8598 42.36 28.7998 44 31.3998 43.94C33.9998 43.88 35.8398 41.46 37.5198 39.04C38.7099 37.2831 39.6395 35.3632 40.2798 33.34C38.6948 32.664 37.3425 31.5386 36.3899 30.1026C35.4373 28.6667 34.9263 26.9832 34.9198 25.26Z" fill="black"/>
</g>
</svg>
