<svg width="30" height="30" viewBox="0 0 30 30" fill="none" xmlns="http://www.w3.org/2000/svg">
<g id="arrow_right_alt">
<mask id="mask0_330_1094" style="mask-type:alpha" maskUnits="userSpaceOnUse" x="0" y="0" width="30" height="30">
<rect id="Bounding box" width="30" height="30" fill="#D9D9D9"/>
</mask>
<g mask="url(#mask0_330_1094)">
<path id="arrow_right_alt_2" d="M23.9375 16.9528H3.75C3.39583 16.9528 3.09896 16.833 2.85938 16.5934C2.61979 16.3538 2.5 16.0569 2.5 15.7028C2.5 15.3486 2.61979 15.0517 2.85938 14.8121C3.09896 14.5726 3.39583 14.4528 3.75 14.4528H23.9375L20.375 10.8903C20.125 10.6403 20.0052 10.3486 20.0156 10.0153C20.026 9.68194 20.1458 9.39027 20.375 9.14027C20.625 8.89027 20.9219 8.76007 21.2656 8.74965C21.6094 8.73923 21.9063 8.85902 22.1563 9.10902L27.875 14.8278C28 14.9528 28.0885 15.0882 28.1406 15.234C28.1927 15.3799 28.2188 15.5361 28.2188 15.7028C28.2188 15.8694 28.1927 16.0257 28.1406 16.1715C28.0885 16.3174 28 16.4528 27.875 16.5778L22.1563 22.2965C21.9063 22.5465 21.6094 22.6663 21.2656 22.6559C20.9219 22.6455 20.625 22.5153 20.375 22.2653C20.1458 22.0153 20.026 21.7236 20.0156 21.3903C20.0052 21.0569 20.125 20.7653 20.375 20.5153L23.9375 16.9528Z" fill="white"/>
</g>
</g>
</svg>
