<svg width="17" height="16" viewBox="0 0 17 16" fill="none" xmlns="http://www.w3.org/2000/svg">
<g id="arrow_drop_down">
<mask id="mask0_674_423" style="mask-type:alpha" maskUnits="userSpaceOnUse" x="0" y="0" width="17" height="16">
<rect id="Bounding box" x="0.5" width="16" height="16" fill="#D9D9D9"/>
</mask>
<g mask="url(#mask0_674_423)">
<path id="arrow_drop_down_2" d="M8.275 10.475L4.65 6.85C4.6 6.8 4.5625 6.74583 4.5375 6.6875C4.5125 6.62917 4.5 6.56667 4.5 6.5C4.5 6.36667 4.54583 6.25 4.6375 6.15C4.72917 6.05 4.85 6 5 6H12.6C12.75 6 12.8708 6.05 12.9625 6.15C13.0542 6.25 13.1 6.36667 13.1 6.5C13.1 6.53333 13.05 6.65 12.95 6.85L9.325 10.475C9.24167 10.5583 9.15833 10.6167 9.075 10.65C8.99167 10.6833 8.9 10.7 8.8 10.7C8.7 10.7 8.60833 10.6833 8.525 10.65C8.44167 10.6167 8.35833 10.5583 8.275 10.475Z" fill="black"/>
</g>
</g>
</svg>
