<svg width="33" height="33" viewBox="0 0 33 33" fill="none" xmlns="http://www.w3.org/2000/svg">
<g id="Attachment" clip-path="url(#clip0_144_1458)">
<path id="Vector" d="M19.0732 24.7215C16.1471 26.4109 12.4423 25.4365 10.7904 22.5753C9.13853 19.7141 10.1471 16.0186 13.0732 14.3292L23.9851 8.02916C26.0489 6.83762 28.6584 7.52354 29.8227 9.54009C30.9869 11.5566 30.2762 14.1595 28.2124 15.351L19.3789 20.451C18.1777 21.1446 16.6604 20.7424 15.9866 19.5753C15.3128 18.4083 15.7231 16.8932 16.9244 16.1996L23.951 12.1428C24.1358 12.0361 24.3721 12.0994 24.4788 12.2842C24.5855 12.469 24.5222 12.7053 24.3374 12.812L17.3107 16.8688C16.9224 17.093 16.6363 17.4607 16.517 17.8928L16.999 18.0259L16.517 17.8928C16.3976 18.3252 16.4551 18.7869 16.6794 19.1753C16.9037 19.5638 17.2747 19.8444 17.7089 19.9572C18.1428 20.0699 18.6042 20.006 18.9926 19.7818L27.826 14.6818C29.493 13.7194 30.0869 11.5979 29.1298 9.94009C28.1727 8.28233 26.0385 7.73591 24.3715 8.69837L13.4596 14.9984C10.93 16.4588 10.0357 19.6681 11.4833 22.1753C12.9308 24.6826 16.1572 25.5127 18.6868 24.0523L27.7919 18.7954C27.9767 18.6888 28.213 18.7521 28.3197 18.9369C28.4264 19.1217 28.3631 19.358 28.1783 19.4647L19.0732 24.7215Z" stroke="black"/>
</g>
<defs>
<clipPath id="clip0_144_1458">
<rect width="24" height="24" fill="white" transform="translate(0.107422 12) rotate(-30)"/>
</clipPath>
</defs>
</svg>
