<svg width="24" height="24" viewBox="0 0 24 24" fill="none" xmlns="http://www.w3.org/2000/svg">
<g id="distance">
<mask id="mask0_3749_1640" style="mask-type:alpha" maskUnits="userSpaceOnUse" x="0" y="0" width="24" height="24">
<rect id="Bounding box" width="24" height="24" fill="#D9D9D9"/>
</mask>
<g mask="url(#mask0_3749_1640)">
<path id="distance_2" d="M9.9974 18.3337C8.52517 18.3337 7.32378 18.101 6.39323 17.6357C5.46267 17.1705 4.9974 16.5698 4.9974 15.8337C4.9974 15.5698 5.05642 15.3267 5.17448 15.1045C5.29253 14.8823 5.46962 14.6739 5.70573 14.4795C5.90017 14.3406 6.11198 14.285 6.34115 14.3128C6.57031 14.3406 6.75434 14.4517 6.89323 14.6462C7.03212 14.8406 7.0842 15.0524 7.04948 15.2816C7.01476 15.5107 6.90017 15.6948 6.70573 15.8337C6.88628 16.0559 7.30295 16.2503 7.95573 16.417C8.60851 16.5837 9.28906 16.667 9.9974 16.667C10.7057 16.667 11.3863 16.5837 12.0391 16.417C12.6918 16.2503 13.1085 16.0559 13.2891 15.8337C13.0946 15.6948 12.98 15.5107 12.9453 15.2816C12.9106 15.0524 12.9627 14.8406 13.1016 14.6462C13.2405 14.4517 13.4245 14.3406 13.6536 14.3128C13.8828 14.285 14.0946 14.3406 14.2891 14.4795C14.5252 14.6739 14.7023 14.8823 14.8203 15.1045C14.9384 15.3267 14.9974 15.5698 14.9974 15.8337C14.9974 16.5698 14.5321 17.1705 13.6016 17.6357C12.671 18.101 11.4696 18.3337 9.9974 18.3337ZM9.9974 15.4378C9.83073 15.4378 9.66406 15.41 9.4974 15.3545C9.33073 15.2989 9.17795 15.2156 9.03906 15.1045C7.40017 13.7989 6.17795 12.5246 5.3724 11.2816C4.56684 10.0385 4.16406 8.81977 4.16406 7.62533C4.16406 6.63921 4.34115 5.77463 4.69531 5.03158C5.04948 4.28852 5.50434 3.66699 6.0599 3.16699C6.61545 2.66699 7.24045 2.29199 7.9349 2.04199C8.62934 1.79199 9.31684 1.66699 9.9974 1.66699C10.678 1.66699 11.3655 1.79199 12.0599 2.04199C12.7543 2.29199 13.3793 2.66699 13.9349 3.16699C14.4905 3.66699 14.9453 4.28852 15.2995 5.03158C15.6536 5.77463 15.8307 6.63921 15.8307 7.62533C15.8307 8.81977 15.428 10.0385 14.6224 11.2816C13.8168 12.5246 12.5946 13.7989 10.9557 15.1045C10.8168 15.2156 10.6641 15.2989 10.4974 15.3545C10.3307 15.41 10.1641 15.4378 9.9974 15.4378ZM9.9974 9.16699C10.4557 9.16699 10.8481 9.0038 11.1745 8.67741C11.5009 8.35102 11.6641 7.95866 11.6641 7.50033C11.6641 7.04199 11.5009 6.64963 11.1745 6.32324C10.8481 5.99685 10.4557 5.83366 9.9974 5.83366C9.53906 5.83366 9.1467 5.99685 8.82031 6.32324C8.49392 6.64963 8.33073 7.04199 8.33073 7.50033C8.33073 7.95866 8.49392 8.35102 8.82031 8.67741C9.1467 9.0038 9.53906 9.16699 9.9974 9.16699Z" fill="#808080"/>
</g>
</g>
</svg>
