<svg width="21" height="20" viewBox="0 0 21 20" fill="none" xmlns="http://www.w3.org/2000/svg">
<g id="edit">
<mask id="mask0_144_320" style="mask-type:alpha" maskUnits="userSpaceOnUse" x="0" y="0" width="21" height="20">
<rect id="Bounding box" x="0.5" width="20" height="20" fill="#D9D9D9"/>
</mask>
<g mask="url(#mask0_144_320)">
<path id="edit_2" d="M3.83333 17.5C3.59722 17.5 3.39931 17.4201 3.23958 17.2604C3.07986 17.1007 3 16.9028 3 16.6667V14.6458C3 14.4236 3.04167 14.2118 3.125 14.0104C3.20833 13.809 3.32639 13.6319 3.47917 13.4792L14 2.97917C14.1667 2.82639 14.3507 2.70833 14.5521 2.625C14.7535 2.54167 14.9653 2.5 15.1875 2.5C15.4097 2.5 15.625 2.54167 15.8333 2.625C16.0417 2.70833 16.2222 2.83333 16.375 3L17.5208 4.16667C17.6875 4.31944 17.809 4.5 17.8854 4.70833C17.9618 4.91667 18 5.125 18 5.33333C18 5.55556 17.9618 5.76736 17.8854 5.96875C17.809 6.17014 17.6875 6.35417 17.5208 6.52083L7.02083 17.0208C6.86806 17.1736 6.69097 17.2917 6.48958 17.375C6.28819 17.4583 6.07639 17.5 5.85417 17.5H3.83333ZM15.1667 6.5L16.3333 5.33333L15.1667 4.16667L14 5.33333L15.1667 6.5Z" fill="white"/>
</g>
</g>
</svg>
