<svg width="40" height="41" viewBox="0 0 40 41" fill="none" xmlns="http://www.w3.org/2000/svg">
<g id="Facebook" clip-path="url(#clip0_489_377)">
<path id="Vector" d="M35 0.931641H5C2.2425 0.931641 0 3.17414 0 5.93164V35.9316C0 38.6891 2.2425 40.9316 5 40.9316H20V27.1816H15V20.9316H20V15.9316C20 13.9425 20.7902 12.0349 22.1967 10.6283C23.6032 9.22182 25.5109 8.43164 27.5 8.43164H32.5V14.6816H30C28.62 14.6816 27.5 14.5516 27.5 15.9316V20.9316H33.75L31.25 27.1816H27.5V40.9316H35C37.7575 40.9316 40 38.6891 40 35.9316V5.93164C40 3.17414 37.7575 0.931641 35 0.931641Z" fill="#981945"/>
</g>
<defs>
<clipPath id="clip0_489_377">
<rect width="40" height="40" fill="white" transform="translate(0 0.931641)"/>
</clipPath>
</defs>
</svg>
