<svg width="24" height="24" viewBox="0 0 24 24" fill="none" xmlns="http://www.w3.org/2000/svg">
<g id="favorite">
<mask id="mask0_330_956" style="mask-type:alpha" maskUnits="userSpaceOnUse" x="0" y="0" width="24" height="25">
<rect id="Bounding box" y="0.000244141" width="24" height="24" fill="#D9D9D9"/>
</mask>
<g mask="url(#mask0_330_956)">
<path id="favorite_2" d="M12 22.3251C11.7667 22.3251 11.5292 22.2835 11.2875 22.2001C11.0458 22.1168 10.8333 21.9835 10.65 21.8001L8.925 20.2251C7.15833 18.6085 5.5625 17.0043 4.1375 15.4126C2.7125 13.821 2 12.0668 2 10.1501C2 8.58348 2.525 7.27515 3.575 6.22515C4.625 5.17515 5.93333 4.65015 7.5 4.65015C8.38333 4.65015 9.21667 4.83765 10 5.21265C10.7833 5.58765 11.45 6.10015 12 6.75015C12.55 6.10015 13.2167 5.58765 14 5.21265C14.7833 4.83765 15.6167 4.65015 16.5 4.65015C18.0667 4.65015 19.375 5.17515 20.425 6.22515C21.475 7.27515 22 8.58348 22 10.1501C22 12.0668 21.2917 13.8251 19.875 15.4251C18.4583 17.0251 16.85 18.6335 15.05 20.2501L13.35 21.8001C13.1667 21.9835 12.9542 22.1168 12.7125 22.2001C12.4708 22.2835 12.2333 22.3251 12 22.3251ZM11.05 8.75015C10.5667 8.06681 10.05 7.54598 9.5 7.18765C8.95 6.82931 8.28333 6.65015 7.5 6.65015C6.5 6.65015 5.66667 6.98348 5 7.65015C4.33333 8.31681 4 9.15015 4 10.1501C4 11.0168 4.30833 11.9376 4.925 12.9126C5.54167 13.8876 6.27917 14.8335 7.1375 15.7501C7.99583 16.6668 8.87917 17.5251 9.7875 18.3251C10.6958 19.1251 11.4333 19.7835 12 20.3001C12.5667 19.7835 13.3042 19.1251 14.2125 18.3251C15.1208 17.5251 16.0042 16.6668 16.8625 15.7501C17.7208 14.8335 18.4583 13.8876 19.075 12.9126C19.6917 11.9376 20 11.0168 20 10.1501C20 9.15015 19.6667 8.31681 19 7.65015C18.3333 6.98348 17.5 6.65015 16.5 6.65015C15.7167 6.65015 15.05 6.82931 14.5 7.18765C13.95 7.54598 13.4333 8.06681 12.95 8.75015C12.8333 8.91681 12.6917 9.04181 12.525 9.12515C12.3583 9.20848 12.1833 9.25015 12 9.25015C11.8167 9.25015 11.6417 9.20848 11.475 9.12515C11.3083 9.04181 11.1667 8.91681 11.05 8.75015Z" fill="white"/>
</g>
</g>
</svg>
