<svg width="19" height="20" viewBox="0 0 19 20" fill="none" xmlns="http://www.w3.org/2000/svg">
<g id="Frame" clip-path="url(#clip0_491_685)">
<path id="Vector" d="M9.60547 0.929688C10.8555 0.929688 12.0273 1.17188 13.1211 1.65625C14.2148 2.14062 15.168 2.80469 15.9805 3.64844C16.8086 4.47656 17.457 5.46094 17.9258 6.60156C18.4102 7.72656 18.6523 8.92969 18.6523 10.2109C18.6523 11.4922 18.418 12.6953 17.9492 13.8203C17.4805 14.9297 16.832 15.8984 16.0039 16.7266C15.1914 17.5391 14.2305 18.1875 13.1211 18.6719C12.0117 19.1406 10.8164 19.375 9.53516 19.375C8.23828 19.375 7.02734 19.1406 5.90234 18.6719C4.79297 18.1875 3.82422 17.5312 2.99609 16.7031C2.16797 15.875 1.51953 14.8984 1.05078 13.7734C0.582031 12.6328 0.347656 11.4141 0.347656 10.1172C0.347656 8.83594 0.589844 7.64062 1.07422 6.53125C1.55859 5.40625 2.21484 4.42969 3.04297 3.60156C3.87109 2.77344 4.84766 2.125 5.97266 1.65625C7.09766 1.17188 8.30859 0.929688 9.60547 0.929688ZM9.44141 2.05469C8.41016 2.05469 7.43359 2.27344 6.51172 2.71094C5.58984 3.14844 4.77734 3.73438 4.07422 4.46875C3.38672 5.20312 2.83984 6.0625 2.43359 7.04688C2.02734 8.01562 1.82422 9.04688 1.82422 10.1406C1.82422 11.25 2.02734 12.3047 2.43359 13.3047C2.83984 14.2891 3.39453 15.1484 4.09766 15.8828C4.80078 16.6172 5.62109 17.2031 6.55859 17.6406C7.49609 18.0625 8.48828 18.2734 9.53516 18.2734C10.5664 18.2734 11.543 18.0625 12.4648 17.6406C13.4023 17.2031 14.2148 16.6172 14.9023 15.8828C15.6055 15.1328 16.1602 14.2734 16.5664 13.3047C16.9727 12.3203 17.1758 11.2734 17.1758 10.1641C17.1758 9.03906 16.9727 7.98438 16.5664 7C16.1602 6 15.6055 5.14062 14.9023 4.42188C14.2148 3.6875 13.4023 3.10938 12.4648 2.6875C11.5273 2.26562 10.5195 2.05469 9.44141 2.05469ZM5.17578 5.10156H9.93359C10.8867 5.10156 11.6367 5.32031 12.1836 5.75781C12.7305 6.19531 13.0039 6.78906 13.0039 7.53906C13.0039 8.82031 12.3008 9.75 10.8945 10.3281L12.418 12.4375C12.8086 12.9844 13.1602 13.4375 13.4727 13.7969C13.8008 14.1406 14.1289 14.4453 14.457 14.7109V14.9453H12.7461C12.2773 14.9453 11.6602 14.2422 10.8945 12.8359C10.8164 12.6797 10.7461 12.5547 10.6836 12.4609C10.6211 12.3516 10.543 12.2266 10.4492 12.0859C10.3711 11.9297 10.2539 11.7422 10.0977 11.5234C9.95703 11.3047 9.75391 11 9.48828 10.6094H8.22266V13.2812C8.22266 13.5625 8.23047 13.7812 8.24609 13.9375C8.26172 14.0781 8.30859 14.1875 8.38672 14.2656C8.46484 14.3438 8.58984 14.3984 8.76172 14.4297C8.94922 14.4609 9.20703 14.5 9.53516 14.5469V14.9453H5.17578V14.5469C5.50391 14.5 5.76172 14.4609 5.94922 14.4297C6.13672 14.3984 6.26953 14.3438 6.34766 14.2656C6.42578 14.1875 6.47266 14.0781 6.48828 13.9375C6.50391 13.7812 6.51172 13.5625 6.51172 13.2812V6.8125C6.51172 6.51562 6.50391 6.28906 6.48828 6.13281C6.47266 5.96094 6.42578 5.83594 6.34766 5.75781C6.26953 5.67969 6.13672 5.625 5.94922 5.59375C5.76172 5.5625 5.50391 5.53125 5.17578 5.5V5.10156ZM8.22266 10.0703H9.37109C9.96484 10.0703 10.418 9.86719 10.7305 9.46094C11.0586 9.05469 11.2227 8.47656 11.2227 7.72656C11.2227 6.30469 10.5898 5.59375 9.32422 5.59375H8.22266V10.0703Z" fill="#404040"/>
</g>
<defs>
<clipPath id="clip0_491_685">
<rect width="19" height="20" fill="white"/>
</clipPath>
</defs>
</svg>
