<svg width="72" height="73" viewBox="0 0 72 73" fill="none" xmlns="http://www.w3.org/2000/svg">
<g id="premium quality">
<path id="Vector" d="M30.6242 55.3654L22.7729 65.7851C22.7077 65.8714 22.6191 65.937 22.5176 65.9742C22.4161 66.0114 22.306 66.0185 22.2006 65.9948C22.0951 65.971 21.9987 65.9174 21.923 65.8403C21.8472 65.7633 21.7952 65.666 21.7733 65.5601L19.6887 55.6196L9.55187 56.3548C9.44483 56.3598 9.3385 56.3351 9.2446 56.2835C9.1507 56.2319 9.07289 56.1554 9.01974 56.0623C8.968 55.9674 8.94473 55.8595 8.95271 55.7517C8.96069 55.6438 8.99959 55.5406 9.06474 55.4543L15.646 46.7187L18.4371 48.3291C18.5445 48.3913 18.6337 48.4805 18.6959 48.5878L20.4497 51.6197C21.0062 52.5807 21.8052 53.3788 22.7669 53.9341C23.7285 54.4895 24.8191 54.7827 25.9296 54.7843H29.434C29.5571 54.7875 29.6784 54.8146 29.7912 54.8642C30.0798 55.0124 30.3581 55.1799 30.6242 55.3654ZM62.9371 55.4543L56.344 46.7051L53.5315 48.3308C53.4251 48.3921 53.3369 48.4804 53.2756 48.5867L51.5217 51.6242C50.965 52.585 50.1659 53.3828 49.2043 53.9379C48.2427 54.4931 47.1522 54.7861 46.0418 54.7877H42.5374C42.414 54.7876 42.2928 54.82 42.1859 54.8816L41.3708 55.3525L49.2323 65.7857C49.298 65.8712 49.3867 65.9364 49.4879 65.9736C49.5892 66.0109 49.6989 66.0186 49.8044 65.9961C49.9098 65.9726 50.0063 65.9191 50.0822 65.8422C50.1581 65.7653 50.2103 65.6682 50.2324 65.5624L52.3137 55.6196L62.4769 56.3554C62.5821 56.3569 62.6855 56.3289 62.7755 56.2745C62.8655 56.2202 62.9385 56.1417 62.9862 56.048C63.0339 55.9543 63.0543 55.8491 63.0452 55.7444C63.0362 55.6396 62.9979 55.5395 62.9348 55.4554L62.9371 55.4543ZM51.9571 31.0435C51.9571 34.203 51.0201 37.2916 49.2648 39.9187C47.5094 42.5458 45.0145 44.5933 42.0954 45.8024C39.1764 47.0115 35.9643 47.3279 32.8655 46.7115C29.7666 46.0951 26.9202 44.5736 24.686 42.3395C22.4519 40.1053 20.9304 37.2589 20.314 34.16C19.6976 31.0612 20.014 27.8491 21.2231 24.9301C22.4322 22.011 24.4797 19.5161 27.1068 17.7607C29.7339 16.0054 32.8225 15.0685 35.9821 15.0685C40.2176 15.0726 44.2785 16.757 47.2735 19.752C50.2685 22.747 51.9529 26.8079 51.9571 31.0435ZM46.9137 27.6274C46.7536 27.1312 46.4581 26.6895 46.0606 26.3521C45.6631 26.0148 45.1793 25.795 44.6637 25.7177L40.4354 25.0697L38.5139 21.2447C38.2798 20.7789 37.9208 20.3873 37.477 20.1137C37.0333 19.8401 36.5222 19.6952 36.0009 19.6952C35.4796 19.6952 34.9685 19.8401 34.5248 20.1137C34.081 20.3873 33.722 20.7789 33.4879 21.2447L31.5664 25.0697L27.3387 25.7177C26.8232 25.7964 26.3397 26.0169 25.9422 26.3545C25.5448 26.6922 25.2491 27.1337 25.0881 27.6297C24.9271 28.1257 24.9071 28.6567 25.0305 29.1634C25.1539 29.6701 25.4157 30.1325 25.7867 30.499L28.8265 33.5072L28.1335 37.726C28.0476 38.2409 28.1074 38.7696 28.3062 39.2522C28.505 39.7349 28.8349 40.1524 29.2585 40.4575C29.6811 40.7616 30.1792 40.9436 30.6984 40.9833C31.2175 41.0229 31.7376 40.9189 32.2015 40.6825L36.0012 38.7188L39.7986 40.6808C40.263 40.9182 40.7838 41.0231 41.3039 40.9839C41.8239 40.9447 42.3232 40.7629 42.7467 40.4586C43.1699 40.1531 43.4993 39.7352 43.6976 39.2524C43.8959 38.7695 43.9552 38.2408 43.8689 37.726L43.1759 33.5072L46.2184 30.4984C46.5902 30.1321 46.8523 29.6692 46.9751 29.162C47.098 28.6547 47.0767 28.1232 46.9137 27.6274ZM41.6487 38.0927L40.7678 32.7236L44.6361 28.8986C44.7103 28.8253 44.7627 28.7329 44.7874 28.6315C44.812 28.5302 44.808 28.424 44.7758 28.3247C44.7436 28.2255 44.6844 28.1372 44.6049 28.0697C44.5254 28.0022 44.4287 27.9581 44.3256 27.9424L38.947 27.1211L36.5041 22.2572C36.4572 22.164 36.3854 22.0857 36.2967 22.031C36.2079 21.9763 36.1057 21.9473 36.0015 21.9473C35.8972 21.9473 35.795 21.9763 35.7062 22.031C35.6175 22.0857 35.5457 22.164 35.4989 22.2572L33.0559 27.1189L27.6762 27.9418C27.5731 27.9576 27.4764 28.0016 27.3969 28.0692C27.3174 28.1367 27.2582 28.225 27.226 28.3242C27.1938 28.4234 27.1898 28.5296 27.2144 28.6309C27.2391 28.7323 27.2915 28.8248 27.3657 28.8981L31.234 32.7231L30.3537 38.0927C30.3368 38.1957 30.349 38.3013 30.3887 38.3977C30.4284 38.4942 30.4942 38.5777 30.5787 38.6389C30.6633 38.6999 30.7631 38.7364 30.8671 38.7443C30.9711 38.7523 31.0753 38.7313 31.1682 38.6839L36.0012 36.1864L40.8347 38.6822C40.9146 38.7233 41.0031 38.7445 41.0929 38.7441C41.1741 38.7434 41.2542 38.7252 41.3277 38.6909C41.4013 38.6566 41.4666 38.6069 41.5193 38.5451C41.572 38.4834 41.6108 38.411 41.6332 38.333C41.6555 38.2549 41.6608 38.173 41.6487 38.0927ZM59.6262 33.0825L57.874 36.12C57.6157 36.5692 57.4799 37.0784 57.4802 37.5966V41.1004C57.479 41.816 57.29 42.5187 56.9322 43.1383C56.5744 43.758 56.0603 44.273 55.4412 44.6318L52.4037 46.384C51.9547 46.6433 51.582 47.0164 51.3231 47.4656L49.5704 50.5003C49.2117 51.1195 48.6968 51.6338 48.0771 51.9916C47.4573 52.3494 46.7546 52.5383 46.039 52.5394H42.5346C42.0164 52.539 41.5072 52.6748 41.0581 52.9331L38.0206 54.6859C37.4002 55.0426 36.6971 55.2304 35.9815 55.2304C35.2659 55.2304 34.5628 55.0426 33.9424 54.6859L30.9049 52.9337C30.4559 52.6751 29.9466 52.5393 29.4284 52.54H25.924C25.2084 52.5389 24.5056 52.35 23.8859 51.9921C23.2662 51.6343 22.7513 51.1201 22.3926 50.5009L20.6449 47.4628C20.3855 47.0138 20.0127 46.6408 19.5638 46.3811L16.5263 44.6301C15.9072 44.2711 15.3932 43.756 15.0354 43.1363C14.6776 42.5165 14.4886 41.8138 14.4872 41.0981V37.5938C14.4877 37.0756 14.3519 36.5664 14.0935 36.1172L12.3419 33.0797C11.985 32.4594 11.7972 31.7563 11.7972 31.0406C11.7972 30.325 11.985 29.6219 12.3419 29.0016L14.0941 25.9641C14.3523 25.5151 14.4881 25.0061 14.4878 24.4881V20.9837C14.4889 20.2681 14.6779 19.5654 15.0357 18.9457C15.3935 18.326 15.9077 17.8111 16.5269 17.4523L19.5644 15.7001C20.0127 15.4422 20.3854 15.0709 20.6449 14.6235L22.3971 11.5894C22.7558 10.9702 23.2707 10.456 23.8904 10.0981C24.5101 9.74032 25.2129 9.55142 25.9285 9.55033H29.4329C29.9509 9.5506 30.4598 9.41482 30.9089 9.15658L33.9464 7.40383C34.5667 7.04711 35.2698 6.85938 35.9854 6.85938C36.701 6.85937 37.4041 7.04711 38.0245 7.40383L41.062 9.15602C41.5111 9.4145 42.0204 9.55029 42.5386 9.54977H46.0429C46.7585 9.55086 47.4613 9.73976 48.081 10.0976C48.7007 10.4554 49.2156 10.9696 49.5743 11.5888L51.3265 14.6235C51.5859 15.0725 51.9587 15.4455 52.4076 15.7052L55.4451 17.4568C56.0643 17.8156 56.5785 18.3305 56.9363 18.9502C57.2941 19.5699 57.483 20.2726 57.4842 20.9882V24.4926C57.4838 25.0106 57.6195 25.5196 57.8779 25.9686L59.6296 29.0061C59.9856 29.6265 60.1726 30.3294 60.172 31.0448C60.1714 31.7601 59.9832 32.4627 59.6262 33.0825ZM54.2071 31.0435C54.2071 27.4389 53.1382 23.9153 51.1356 20.9182C49.133 17.9211 46.2866 15.5852 42.9565 14.2058C39.6263 12.8263 35.9618 12.4654 32.4265 13.1686C28.8912 13.8719 25.6438 15.6076 23.095 18.1564C20.5462 20.7052 18.8105 23.9526 18.1072 27.4879C17.404 31.0232 17.7649 34.6877 19.1443 38.0179C20.5238 41.348 22.8597 44.1944 25.8568 46.197C28.8539 48.1996 32.3775 49.2685 35.9821 49.2685C40.8142 49.2637 45.447 47.342 48.8638 43.9252C52.2806 40.5084 54.2023 35.8756 54.2071 31.0435Z" fill="#981945"/>
</g>
</svg>
