<svg width="25" height="25" viewBox="0 0 25 25" fill="none" xmlns="http://www.w3.org/2000/svg">
<g id="shopping_cart">
<mask id="mask0_332_3634" style="mask-type:alpha" maskUnits="userSpaceOnUse" x="0" y="0" width="25" height="25">
<rect id="Bounding box" x="0.5" y="0.285645" width="24" height="24" fill="#D9D9D9"/>
</mask>
<g mask="url(#mask0_332_3634)">
<path id="shopping_cart_2" d="M7.5 22.2856C6.95 22.2856 6.47917 22.0898 6.0875 21.6981C5.69583 21.3065 5.5 20.8356 5.5 20.2856C5.5 19.7356 5.69583 19.2648 6.0875 18.8731C6.47917 18.4815 6.95 18.2856 7.5 18.2856C8.05 18.2856 8.52083 18.4815 8.9125 18.8731C9.30417 19.2648 9.5 19.7356 9.5 20.2856C9.5 20.8356 9.30417 21.3065 8.9125 21.6981C8.52083 22.0898 8.05 22.2856 7.5 22.2856ZM17.5 22.2856C16.95 22.2856 16.4792 22.0898 16.0875 21.6981C15.6958 21.3065 15.5 20.8356 15.5 20.2856C15.5 19.7356 15.6958 19.2648 16.0875 18.8731C16.4792 18.4815 16.95 18.2856 17.5 18.2856C18.05 18.2856 18.5208 18.4815 18.9125 18.8731C19.3042 19.2648 19.5 19.7356 19.5 20.2856C19.5 20.8356 19.3042 21.3065 18.9125 21.6981C18.5208 22.0898 18.05 22.2856 17.5 22.2856ZM6.65 6.28564L9.05 11.2856H16.05L18.8 6.28564H6.65ZM5.7 4.28564H20.45C20.8333 4.28564 21.125 4.45648 21.325 4.79814C21.525 5.13981 21.5333 5.48564 21.35 5.83564L17.8 12.2356C17.6167 12.569 17.3708 12.8273 17.0625 13.0106C16.7542 13.194 16.4167 13.2856 16.05 13.2856H8.6L7.5 15.2856H18.5C18.7833 15.2856 19.0208 15.3815 19.2125 15.5731C19.4042 15.7648 19.5 16.0023 19.5 16.2856C19.5 16.569 19.4042 16.8065 19.2125 16.9981C19.0208 17.1898 18.7833 17.2856 18.5 17.2856H7.5C6.75 17.2856 6.18333 16.9565 5.8 16.2981C5.41667 15.6398 5.4 14.9856 5.75 14.3356L7.1 11.8856L3.5 4.28564H2.5C2.21667 4.28564 1.97917 4.18981 1.7875 3.99814C1.59583 3.80648 1.5 3.56898 1.5 3.28564C1.5 3.00231 1.59583 2.76481 1.7875 2.57314C1.97917 2.38148 2.21667 2.28564 2.5 2.28564H4.125C4.30833 2.28564 4.48333 2.33564 4.65 2.43564C4.81667 2.53564 4.94167 2.67731 5.025 2.86064L5.7 4.28564Z" fill="white"/>
</g>
</g>
</svg>
