<svg width="72" height="73" viewBox="0 0 72 73" fill="none" xmlns="http://www.w3.org/2000/svg">
<g id="Timer">
<path id="Vector" d="M30.0007 13.9316H42.0008C43.8008 13.9316 45.0008 12.7316 45.0008 10.9316C45.0008 9.13164 43.8008 7.93164 42.0008 7.93164H30.0007C28.2007 7.93164 27.0007 9.13164 27.0007 10.9316C27.0007 12.7316 28.2007 13.9316 30.0007 13.9316ZM54.9007 26.2316L57.6008 23.5316C58.8008 22.3316 58.8008 20.5316 57.6008 19.3316C56.4008 18.1316 54.6007 18.1316 53.4007 19.3316L50.7007 22.0316C42.0007 15.1316 30.0007 15.1316 21.3007 22.0316L18.6007 19.3316C17.4007 18.1316 15.6007 18.1316 14.4008 19.3316C13.2007 20.5316 13.2007 22.3316 14.4008 23.5316L17.1007 26.2316C9.00075 36.7316 10.8007 51.7316 21.3007 59.8316C31.8007 67.9316 46.8007 66.1316 54.9007 55.6316C61.8007 46.9316 61.8007 34.9316 54.9007 26.2316ZM41.1007 43.9316C39.9007 45.7316 38.1007 46.9316 36.0007 46.9316C32.7007 46.9316 30.0007 44.2316 30.0007 40.9316C30.0007 38.8316 31.2007 36.7316 33.0007 35.8316V28.9316C33.0007 27.1316 34.2007 25.9316 36.0007 25.9316C37.8007 25.9316 39.0008 27.1316 39.0008 28.9316V35.8316C42.0008 37.3316 42.9007 40.9316 41.1007 43.9316Z" fill="#981945"/>
</g>
</svg>
